<svg width="168" height="39" viewBox="0 0 168 39" fill="none" xmlns="http://www.w3.org/2000/svg">
<g opacity="0.5">
<path fill-rule="evenodd" clip-rule="evenodd" d="M6.68267 28.3702L3.34133 37.44H0V35.724L12.3356 3.12H17.22L29.5556 35.724V37.44H26.2142L22.8729 28.3702H6.68267ZM21.7778 24.96L14.9007 6.24H14.6533L7.77778 24.96H21.7778ZM53.9264 5.81724H64.2958L65.3333 4.83599V3.12H38.8889V5.81724H50.2958V37.44H53.9264V5.81724ZM149.419 33.2732L160.364 6.79691H160.619L164.691 37.44H168V35.724L163.419 3.12H158.328L147.128 29.5948H146.872L135.672 3.12H130.581L126 35.724V37.44H129.309L133.381 6.79691H133.636L144.581 33.2732H149.419V33.2732Z" fill="white"/>
<mask id="mask0_386_2664" style="mask-type:alpha" maskUnits="userSpaceOnUse" x="77" y="3" width="37" height="36">
<path d="M94.8889 34.32C98.602 34.32 102.163 32.8408 104.788 30.2078C107.414 27.5748 108.889 24.0036 108.889 20.28C108.889 16.5564 107.414 12.9852 104.788 10.3522C102.163 7.71921 98.602 6.24 94.8889 6.24C91.1759 6.24 87.615 7.71921 84.9894 10.3522C82.3639 12.9852 80.8889 16.5564 80.8889 20.28C80.8889 24.0036 82.3639 27.5748 84.9894 30.2078C87.615 32.8408 91.1759 34.32 94.8889 34.32V34.32ZM95.6667 39C85.7874 39 77.7778 30.9676 77.7778 21.06C77.7778 11.1524 85.7874 3.12 95.6667 3.12C105.546 3.12 113.556 11.1524 113.556 21.06C113.556 30.9676 105.546 39 95.6667 39Z" fill="white"/>
</mask>
<g mask="url(#mask0_386_2664)">
<path d="M94.8889 34.32C98.602 34.32 102.163 32.8408 104.788 30.2078C107.414 27.5748 108.889 24.0036 108.889 20.28C108.889 16.5564 107.414 12.9852 104.788 10.3522C102.163 7.7192 98.602 6.24 94.8889 6.24C91.1759 6.24 87.615 7.7192 84.9894 10.3522C82.3639 12.9852 80.8889 16.5564 80.8889 20.28C80.8889 24.0036 82.3639 27.5748 84.9894 30.2078C87.615 32.8408 91.1759 34.32 94.8889 34.32ZM94.8889 37.44C85.0096 37.44 77.7778 30.9676 77.7778 21.06C77.7778 11.1524 85.7874 3.12 95.6667 3.12C105.546 3.12 112 10.3724 112 20.28C112 30.1876 104.768 37.44 94.8889 37.44Z" fill="white"/>
<path fill-rule="evenodd" clip-rule="evenodd" d="M91.7255 7.27329C93.7549 6.63702 95.0417 5.97364 95.5859 5.28664C96.1316 4.60029 96.6244 3.35218 97.0664 1.54155C98.2293 1.41407 99.197 1.40012 99.9743 1.50026C100.75 1.59974 101.658 1.79191 102.701 2.0781L99.597 8.801L91.7255 7.27329Z" fill="#006299"/>
<path fill-rule="evenodd" clip-rule="evenodd" d="M111.745 15.4757C111.09 15.9077 110.404 16.5135 109.691 17.2954C108.62 18.4671 108.46 19.3899 108.394 20.417C107.488 20.0801 106.469 18.3731 105.513 17.9063C104.879 17.5962 104.164 17.1611 103.371 16.6067L110.845 10.8947L111.745 15.4757Z" fill="#006299"/>
</g>
<path fill-rule="evenodd" clip-rule="evenodd" d="M104.222 18.72C101.747 18.72 99.3729 17.7339 97.6226 15.9785C95.8722 14.2232 94.8889 11.8424 94.8889 9.36C94.8889 6.87757 95.8722 4.49682 97.6226 2.74148C99.3729 0.98614 101.747 0 104.222 0C106.698 0 109.072 0.98614 110.822 2.74148C112.572 4.49682 113.556 6.87757 113.556 9.36C113.556 11.8424 112.572 14.2232 110.822 15.9785C109.072 17.7339 106.698 18.72 104.222 18.72Z" fill="#006299"/>
<path d="M104.222 14.04C105.46 14.04 106.647 13.5469 107.522 12.6693C108.397 11.7916 108.889 10.6012 108.889 9.35999C108.889 8.11878 108.397 6.9284 107.522 6.05073C106.647 5.17306 105.46 4.67999 104.222 4.67999C102.985 4.67999 101.798 5.17306 100.922 6.05073C100.047 6.9284 99.5555 8.11878 99.5555 9.35999C99.5555 10.6012 100.047 11.7916 100.922 12.6693C101.798 13.5469 102.985 14.04 104.222 14.04V14.04Z" fill="white"/>
</g>
</svg>
