<svg width="350" height="350" viewBox="0 0 350 350" fill="none" xmlns="http://www.w3.org/2000/svg">
<g opacity="0.5">
<path d="M65.625 229.687V218.75H43.75V229.687C43.75 249.993 51.8164 269.467 66.1746 283.825C80.5329 298.184 100.007 306.25 120.312 306.25H153.125V284.375H120.312C105.808 284.375 91.8985 278.613 81.6426 268.357C71.3867 258.102 65.625 244.192 65.625 229.687ZM262.5 120.312V131.25H284.375V120.312C284.375 100.007 276.309 80.5329 261.95 66.1746C247.592 51.8164 228.118 43.75 207.812 43.75H175V65.625H207.812C214.994 65.625 222.106 67.0395 228.741 69.7878C235.376 72.5361 241.404 76.5644 246.482 81.6426C251.561 86.7208 255.589 92.7495 258.337 99.3845C261.085 106.019 262.5 113.131 262.5 120.312ZM120.312 120.312H54.6875C45.9851 120.312 37.6391 123.77 31.4856 129.923C25.332 136.077 21.875 144.423 21.875 153.125V175H43.75V153.125C43.75 150.224 44.9023 147.442 46.9535 145.391C49.0047 143.34 51.7867 142.187 54.6875 142.187H120.312C123.213 142.187 125.995 143.34 128.046 145.391C130.098 147.442 131.25 150.224 131.25 153.125V175H153.125V153.125C153.125 144.423 149.668 136.077 143.514 129.923C137.361 123.77 129.015 120.312 120.312 120.312ZM87.5 109.375C96.1529 109.375 104.612 106.809 111.806 102.002C119.001 97.1945 124.608 90.3617 127.92 82.3674C131.231 74.3731 132.097 65.5765 130.409 57.0898C128.721 48.6031 124.554 40.8076 118.436 34.6891C112.317 28.5705 104.522 24.4037 96.0352 22.7156C87.5485 21.0275 78.7519 21.8939 70.7576 25.2053C62.7633 28.5166 55.9305 34.1241 51.1232 41.3188C46.3159 48.5134 43.75 56.9721 43.75 65.625C43.75 77.2282 48.3594 88.3562 56.5641 96.5609C64.7688 104.766 75.8968 109.375 87.5 109.375ZM87.5 43.75C91.8265 43.75 96.0558 45.0329 99.6531 47.4366C103.25 49.8402 106.054 53.2567 107.71 57.2538C109.366 61.2509 109.799 65.6493 108.955 69.8926C108.111 74.1359 106.027 78.0337 102.968 81.093C99.9087 84.1522 96.0109 86.2356 91.7676 87.0797C87.5243 87.9237 83.1259 87.4905 79.1288 85.8349C75.1317 84.1792 71.7153 81.3754 69.3116 77.7781C66.9079 74.1808 65.625 69.9515 65.625 65.625C65.625 59.8234 67.9297 54.2594 72.032 50.157C76.1344 46.0547 81.6984 43.75 87.5 43.75ZM295.312 273.437H229.688C220.985 273.437 212.639 276.895 206.486 283.048C200.332 289.202 196.875 297.548 196.875 306.25V328.125H218.75V306.25C218.75 303.349 219.902 300.567 221.954 298.516C224.005 296.465 226.787 295.312 229.688 295.312H295.312C298.213 295.312 300.995 296.465 303.046 298.516C305.098 300.567 306.25 303.349 306.25 306.25V328.125H328.125V306.25C328.125 297.548 324.668 289.202 318.514 283.048C312.361 276.895 304.015 273.437 295.312 273.437ZM218.75 218.75C218.75 227.403 221.316 235.862 226.123 243.056C230.931 250.251 237.763 255.858 245.758 259.17C253.752 262.481 262.549 263.347 271.035 261.659C279.522 259.971 287.317 255.804 293.436 249.686C299.554 243.567 303.721 235.772 305.409 227.285C307.097 218.799 306.231 210.002 302.92 202.008C299.608 194.013 294.001 187.181 286.806 182.373C279.612 177.566 271.153 175 262.5 175C250.897 175 239.769 179.609 231.564 187.814C223.359 196.019 218.75 207.147 218.75 218.75ZM284.375 218.75C284.375 223.076 283.092 227.306 280.688 230.903C278.285 234.5 274.868 237.304 270.871 238.96C266.874 240.616 262.476 241.049 258.232 240.205C253.989 239.361 250.091 237.277 247.032 234.218C243.973 231.159 241.889 227.261 241.045 223.018C240.201 218.774 240.634 214.376 242.29 210.379C243.946 206.382 246.75 202.965 250.347 200.562C253.944 198.158 258.174 196.875 262.5 196.875C268.302 196.875 273.866 199.18 277.968 203.282C282.07 207.384 284.375 212.948 284.375 218.75Z" fill="white"/>
</g>
</svg>
