<svg width="79" height="79" viewBox="0 0 79 79" fill="none" xmlns="http://www.w3.org/2000/svg">
<path d="M37.5 4.6875C31.0103 4.6875 24.6664 6.61192 19.2704 10.2174C13.8744 13.8229 9.66872 18.9475 7.18522 24.9432C4.70172 30.9389 4.05192 37.5364 5.318 43.9014C6.58408 50.2664 9.70916 56.113 14.2981 60.7019C18.887 65.2908 24.7336 68.4159 31.0986 69.682C37.4636 70.9481 44.0611 70.2983 50.0568 67.8148C56.0525 65.3313 61.1771 61.1256 64.7826 55.7296C68.3881 50.3337 70.3125 43.9897 70.3125 37.5C70.3125 28.7976 66.8555 20.4516 60.702 14.2981C54.5484 8.14452 46.2024 4.6875 37.5 4.6875ZM37.5 65.625C31.9374 65.625 26.4997 63.9755 21.8746 60.8851C17.2495 57.7947 13.6446 53.4021 11.5159 48.263C9.38719 43.1238 8.83022 37.4688 9.91543 32.0131C11.0006 26.5574 13.6793 21.546 17.6126 17.6126C21.546 13.6793 26.5574 11.0006 32.0131 9.91541C37.4688 8.8302 43.1238 9.38717 48.263 11.5159C53.4022 13.6446 57.7947 17.2495 60.8851 21.8746C63.9755 26.4997 65.625 31.9374 65.625 37.5C65.625 44.9592 62.6618 52.1129 57.3874 57.3874C52.1129 62.6618 44.9592 65.625 37.5 65.625Z" fill="#FB8C00"/>
<path d="M35.1563 18.75H39.8438V44.5312H35.1563V18.75ZM37.5 51.5625C36.8047 51.5625 36.125 51.7687 35.5468 52.155C34.9687 52.5413 34.5181 53.0904 34.252 53.7328C33.9859 54.3752 33.9163 55.082 34.0519 55.764C34.1876 56.446 34.5224 57.0724 35.0141 57.564C35.5057 58.0557 36.1322 58.3905 36.8141 58.5262C37.4961 58.6618 38.203 58.5922 38.8454 58.3261C39.4878 58.06 40.0368 57.6094 40.4231 57.0313C40.8094 56.4532 41.0156 55.7734 41.0156 55.0781C41.0156 54.1457 40.6452 53.2515 39.9859 52.5922C39.3266 51.9329 38.4324 51.5625 37.5 51.5625Z" fill="#FB8C00"/>
</svg>
